<svg xmlns="http://www.w3.org/2000/svg" viewBox="0 0 29.7 33.9" enable-background="new 0 0 29.7 33.9"><style type="text/css">.st0{fill:#87724F;}</style><path class="st0" d="M28 23.3c-.2 0-.4.1-.6.2l-3.9-6.6 3.9-6.6c.2.1.4.2.6.2.7 0 1.2-.6 1.2-1.2 0-.7-.6-1.2-1.2-1.2-.7 0-1.2.6-1.2 1.2l-7.6.1-3.7-6.6c.4-.2.6-.6.6-1.1 0-.7-.6-1.2-1.2-1.2-.7 0-1.2.6-1.2 1.2 0 .5.3.9.6 1.1l-3.7 6.6h-7.7c0-.7-.6-1.2-1.2-1.2-.7-.1-1.2.5-1.2 1.2s.6 1.2 1.2 1.2c.2 0 .4-.1.6-.2l3.9 6.6-3.9 6.6c-.2-.1-.4-.2-.6-.2-.7 0-1.2.6-1.2 1.2 0 .7.6 1.2 1.2 1.2.7 0 1.2-.6 1.2-1.2l7.6-.1 3.7 6.6c-.4.2-.6.6-.6 1.1 0 .7.6 1.2 1.2 1.2.7 0 1.2-.6 1.2-1.2 0-.5-.3-.8-.6-1.1l3.7-6.6 7.6.1c0 .7.6 1.2 1.2 1.2.7 0 1.2-.6 1.2-1.2.1-.7-.4-1.3-1.1-1.3z" id="Your_Icon_8_"/></svg>