<?xml version="1.0" encoding="utf-8"?>
<!-- Generator: Adobe Illustrator 18.1.0, SVG Export Plug-In . SVG Version: 6.00 Build 0)  -->
<svg version="1.1" id="Layer_1" xmlns="http://www.w3.org/2000/svg" xmlns:xlink="http://www.w3.org/1999/xlink" x="0px" y="0px"
	 viewBox="0 0 29.7 33.9" style="enable-background:new 0 0 29.7 33.9;" xml:space="preserve">
<style type="text/css">
	.st0{fill:#87724F;}
</style>
<g>
	<g>
		<g id="Your_Icon_8_">
			<path class="st0" d="M28,23.3c-0.2,0-0.4,0.1-0.6,0.2l-3.9-6.6l3.9-6.6c0.2,0.1,0.4,0.2,0.6,0.2c0.7,0,1.2-0.6,1.2-1.2
				c0-0.7-0.6-1.2-1.2-1.2c-0.7,0-1.2,0.6-1.2,1.2c0,0,0,0,0,0l-7.6,0.1l-3.7-6.6c0.4-0.2,0.6-0.6,0.6-1.1c0-0.7-0.6-1.2-1.2-1.2
				c-0.7,0-1.2,0.6-1.2,1.2c0,0.5,0.3,0.9,0.6,1.1l-3.7,6.6L2.9,9.4c0,0,0,0,0,0c0-0.7-0.6-1.2-1.2-1.2C1,8.1,0.5,8.7,0.5,9.4
				c0,0.7,0.6,1.2,1.2,1.2c0.2,0,0.4-0.1,0.6-0.2l3.9,6.6l-3.9,6.6c-0.2-0.1-0.4-0.2-0.6-0.2c-0.7,0-1.2,0.6-1.2,1.2
				c0,0.7,0.6,1.2,1.2,1.2c0.7,0,1.2-0.6,1.2-1.2c0,0,0,0,0,0l7.6-0.1l3.7,6.6c-0.4,0.2-0.6,0.6-0.6,1.1c0,0.7,0.6,1.2,1.2,1.2
				c0.7,0,1.2-0.6,1.2-1.2c0-0.5-0.3-0.8-0.6-1.1l3.7-6.6l7.6,0.1c0,0,0,0,0,0c0,0.7,0.6,1.2,1.2,1.2c0.7,0,1.2-0.6,1.2-1.2
				C29.2,23.9,28.7,23.3,28,23.3z"/>
		</g>
	</g>
</g>
<g>
</g>
<g>
</g>
<g>
</g>
<g>
</g>
<g>
</g>
<g>
</g>
</svg>
