<?xml version="1.0" encoding="utf-8"?>
<!-- Generator: Adobe Illustrator 18.1.1, SVG Export Plug-In . SVG Version: 6.00 Build 0)  -->
<svg version="1.1" id="Layer_1" xmlns="http://www.w3.org/2000/svg" xmlns:xlink="http://www.w3.org/1999/xlink" x="0px" y="0px"
	 viewBox="0 0 100 100" style="enable-background:new 0 0 100 100;" xml:space="preserve">
<style type="text/css">
	.st0{fill:#BB9D6E;}
</style>
<g>
	<path class="st0" d="M75.2,54.4C75.2,54.4,75.2,54.4,75.2,54.4c4.7-1.4,9.6-3.3,14.2-5.9c7.5-4.4,11.3,0.2,8.5,7
		C95.6,62,83,74.1,72,76.8c-4.2-3-12.5-5-22-5c-9.5,0-17.8,2.1-22,5C17,74.1,4.4,62,2,55.5c-2.8-6.8,1.1-11.4,8.5-7
		c4.7,2.6,9.5,4.5,14.2,5.9c10.1,3,19.3,3.8,24.1,3.8l2.7,0C56.4,58.1,65.4,57.3,75.2,54.4z"/>
	<g id="XMLID_1_">
		<path class="st0" d="M61.6,23.9c3.9,2,10.3,20.4,12.8,27.9c-9.5,2.7-18.1,3.5-22.8,3.6l-2.7,0c-4.7,0-13.6-0.7-23.3-3.5
			c2.5-7.5,8.9-26,12.8-28c4.5-2.2,8.3,1.5,11.5,1.8h-0.6c0.2,0,0.5,0,0.8,0c0.3,0,0.5,0,0.8,0h-0.6C53.3,25.4,57.1,21.7,61.6,23.9z
			 M60.1,38.2c0-0.8-0.7-1.5-1.5-1.5c-0.8,0-1.4,0.6-1.5,1.3l-4.6-0.7l-2-4.1c0.5-0.2,0.9-0.8,0.9-1.4c0-0.8-0.7-1.5-1.5-1.5
			s-1.5,0.7-1.5,1.5c0,0.6,0.4,1.2,0.9,1.4l-2,4.1L42.9,38c-0.1-0.7-0.7-1.3-1.5-1.3c-0.8,0-1.5,0.7-1.5,1.5c0,0.8,0.7,1.5,1.5,1.5
			c0.5,0,0.9-0.3,1.2-0.6l3.2,3.2L45,47c-0.2-0.1-0.4-0.1-0.6-0.1c-0.8,0-1.5,0.7-1.5,1.5c0,0.8,0.7,1.5,1.5,1.5
			c0.8,0,1.5-0.7,1.5-1.5c0-0.3-0.1-0.6-0.3-0.8l4.3-2.3l4.3,2.3c-0.2,0.2-0.3,0.5-0.3,0.8c0,0.8,0.7,1.5,1.5,1.5
			c0.8,0,1.5-0.7,1.5-1.5s-0.7-1.5-1.5-1.5c-0.2,0-0.4,0-0.6,0.1l-0.8-4.8l3.2-3.2c0.3,0.4,0.7,0.6,1.2,0.6
			C59.4,39.7,60.1,39,60.1,38.2z"/>
	</g>
</g>
<g>
</g>
<g>
</g>
<g>
</g>
<g>
</g>
<g>
</g>
<g>
</g>
</svg>
