<svg xmlns="http://www.w3.org/2000/svg" viewBox="0 0 100 100" enable-background="new 0 0 100 100"><style type="text/css">.st0{fill:#BB9D6E;}</style><path class="st0" d="M75.2 54.4c4.7-1.4 9.6-3.3 14.2-5.9 7.5-4.4 11.3.2 8.5 7-2.3 6.5-14.9 18.6-25.9 21.3-4.2-3-12.5-5-22-5s-17.8 2.1-22 5c-11-2.7-23.6-14.8-26-21.3-2.8-6.8 1.1-11.4 8.5-7 4.7 2.6 9.5 4.5 14.2 5.9 10.1 3 19.3 3.8 24.1 3.8h2.7c4.9-.1 13.9-.9 23.7-3.8z"/><path class="st0" d="M61.6 23.9c3.9 2 10.3 20.4 12.8 27.9-9.5 2.7-18.1 3.5-22.8 3.6h-2.7c-4.7 0-13.6-.7-23.3-3.5 2.5-7.5 8.9-26 12.8-28 4.5-2.2 8.3 1.5 11.5 1.8h-1.2.8.8c3-.3 6.8-4 11.3-1.8zm-1.5 14.3c0-.8-.7-1.5-1.5-1.5s-1.4.6-1.5 1.3l-4.6-.7-2-4.1c.5-.2.9-.8.9-1.4 0-.8-.7-1.5-1.5-1.5s-1.5.7-1.5 1.5c0 .6.4 1.2.9 1.4l-2 4.1-4.4.7c-.1-.7-.7-1.3-1.5-1.3s-1.5.7-1.5 1.5.7 1.5 1.5 1.5c.5 0 .9-.3 1.2-.6l3.2 3.2-.8 4.7c-.2-.1-.4-.1-.6-.1-.8 0-1.5.7-1.5 1.5s.7 1.5 1.5 1.5 1.5-.7 1.5-1.5c0-.3-.1-.6-.3-.8l4.3-2.3 4.3 2.3c-.2.2-.3.5-.3.8 0 .8.7 1.5 1.5 1.5s1.5-.7 1.5-1.5-.7-1.5-1.5-1.5c-.2 0-.4 0-.6.1l-.8-4.8 3.2-3.2c.3.4.7.6 1.2.6 1 .1 1.7-.6 1.7-1.4z" id="XMLID_1_"/></svg>