<?xml version="1.0" encoding="utf-8"?>
<!-- Generator: Adobe Illustrator 18.1.1, SVG Export Plug-In . SVG Version: 6.00 Build 0)  -->
<svg version="1.1" id="Layer_1" xmlns="http://www.w3.org/2000/svg" xmlns:xlink="http://www.w3.org/1999/xlink" x="0px" y="0px"
	 viewBox="0 0 100 100" style="enable-background:new 0 0 100 100;" xml:space="preserve">
<style type="text/css">
	.st0{fill:#BB9D6E;}
</style>
<g id="Your_Icon_2_">
	<path class="st0" d="M21.6,90.5c1,0.1,1.9-0.6,2.1-1.6c-0.1,1.1,0.7,2,1.7,2.1c1.1,0.1,2-0.7,2.1-1.7c0.1-1.1,0.4-4,0.5-5.1
		c0,0,0.1,0,0.1,0c6.9,0.6,14.6-4.6,16.2-15.4c0.7-4.7-0.5-9.4-3.4-13.2c-1.9-2.6-4.5-4.5-7.4-5.7c0.2-0.4,0.4-0.9,0.4-1.4
		c0.2-1.2-0.1-2.5-0.9-3.5c-0.8-1-1.9-1.7-3.1-1.8c-2.3-0.3-4.5,1.1-5.2,3.4c-0.1,0.2-0.1,0.4-0.1,0.6c-0.1,0.5,0,1,0,1.4
		c-0.5,0.1-1,0.1-1.5,0.2l-1.2-3.3c1.2-0.9,2.2-2.1,2.6-3.6c0.2-0.7,0.3-1.5,0.2-2.3l-0.6-8.5c-0.1-0.8-0.2-1.6-0.6-2.3l4.6-3.8
		c0.1,0.1,0.2,0.1,0.3,0.2c1.6,0.8,3.4,0.9,5.2,0.3l8.1-2.8c2.1-0.7,3.7-2.4,4.3-4.5c0,0,0,0,0,0l4-0.1c0.7,1.6,1.9,3,3.7,3.7
		l7.9,3.3c1.6,0.7,3.4,0.7,5.1,0l1.8,2.3c-0.4,0.6-0.7,1.2-0.9,1.9c-0.3,0.9-0.3,1.8-0.2,2.8l1.2,8.5c0.3,2.5,2.1,4.5,4.3,5.4
		l-0.1,2.8C66.9,48.9,61.2,52,58,57.5c-1,1.7-1.7,3.5-2.2,5.1c-2.1,7.4,0.7,13.9,5.4,17c0,0,0,0,0.1,0.1c-0.6,0.9-2.1,3.4-2.7,4.3
		c-0.6,0.9-0.3,2.1,0.6,2.7c0.9,0.6,2.1,0.3,2.7-0.6l0,0c-0.1,0.1-0.1,0.2-0.2,0.4c-0.2,0.8,0.1,1.7,0.8,2.2
		c0.9,0.6,2.1,0.3,2.7-0.6c0.2-0.4,2.1-3.4,2.8-4.5c0,0,0.1,0,0.1,0c6.2,3.1,15.3,1.3,20.8-8.2c4.2-7.2,2.7-16-2.9-21.6
		c0.4-0.3,0.7-0.7,0.9-1.1c0.2-0.3,0.3-0.7,0.5-1.1c0.6-2.1-0.3-4.3-2.2-5.4C82.9,45,80,45.8,78.7,48c-0.2,0.3-0.3,0.7-0.5,1.1
		c0,0.1,0,0.2-0.1,0.3c-0.5-0.1-1-0.3-1.5-0.3l0.1-2.8c2.4-0.5,4.3-2.3,5-4.7c0.3-0.9,0.3-1.8,0.2-2.8l-1.2-8.5
		c-0.5-3.7-3.9-6.3-7.6-5.8c-0.6,0.1-1.2,0.3-1.8,0.5l-1.7-2.2c0.3-0.4,0.5-0.8,0.7-1.3c1.4-3.5-0.3-7.4-3.7-8.8l-7.9-3.3
		c-1.7-0.7-3.5-0.7-5.2,0c-1.7,0.7-3,2-3.6,3.7c-0.1,0.2-0.2,0.5-0.3,0.7c0,0.2-0.1,0.3-0.1,0.5L46,14.4c0,0,0-0.1,0-0.1
		c-0.6-1.7-1.8-3.1-3.4-3.9c-1.6-0.8-3.4-0.9-5.2-0.3l-8.1,2.8c-2.1,0.7-3.7,2.4-4.3,4.5c-0.4,1.3-0.3,2.7,0.1,4
		c0.1,0.3,0.2,0.6,0.4,0.9l-4.4,3.6c-1.2-0.8-2.6-1.2-4.1-1.1c-2.8,0.2-5.3,2.1-6,4.9c-0.2,0.7-0.3,1.5-0.2,2.3l0.6,8.5
		c0.2,3.6,3.3,6.4,6.9,6.3l1.2,3.3c-4.7,2.1-8.4,6.2-9.9,11.4C9.3,62.2,9.1,63,9,63.9c-1.5,10.9,4.5,18,11.3,19.3c0,0,0.1,0,0.1,0
		c-0.2,1.3-0.5,4.8-0.5,5.3C19.8,89.5,20.6,90.4,21.6,90.5z M85.5,73.5c-3.3,5.6-9.7,9.7-15.7,6.7c-1.8-0.9-4-0.4-5,1.2
		c0.9-1.6,0.3-3.8-1.4-4.9c-5.6-3.7-5.2-11.3-2-17c3.9-6.6,12.4-8.9,19.1-5.1C87.1,58.3,89.3,66.8,85.5,73.5z M82.1,49.9
		c0.2-0.4,0.7-0.5,1.1-0.3c0.3,0.2,0.5,0.6,0.4,1c0,0.1,0,0.1-0.1,0.2c-0.2,0.4-0.7,0.5-1.1,0.3c0,0,0,0,0,0c0,0,0,0,0,0
		C82,50.9,81.8,50.3,82.1,49.9z M77.1,30.7l1.2,8.5c0.1,0.4,0,0.8-0.1,1.2C77.9,41,77.5,41.6,77,42l0.1-2.7c0-1.1-0.8-2-1.9-2
		c-0.9,0-1.7,0.6-1.9,1.4c0,0.1-0.1,0.3-0.1,0.5l-0.1,2.3c-0.3-0.4-0.6-0.9-0.6-1.4l-1.2-8.5c0-0.2,0-0.4,0-0.6l1.3,1.7
		c0.7,0.8,1.9,1,2.7,0.3c0.8-0.7,1-1.9,0.3-2.7l-1.5-2C75.6,28.2,76.9,29.3,77.1,30.7z M55.3,13c0.7-0.3,1.5-0.3,2.2,0l7.9,3.3
		c1.2,0.5,1.9,1.8,1.7,3.1l-0.9-1.2c-0.7-0.8-1.9-1-2.7-0.3c-0.3,0.3-0.6,0.6-0.7,1c-0.2,0.6-0.1,1.2,0.3,1.7l1,1.2
		c-0.3,0-0.6-0.1-0.9-0.2l-7.9-3.3c-0.2-0.1-0.3-0.2-0.5-0.3l1.5,0c1.1,0,1.9-0.9,1.9-2c0-1.1-0.9-1.9-2-1.9l-2.3,0
		C54.2,13.7,54.7,13.2,55.3,13z M30.6,16.5l8.1-2.8c0.7-0.2,1.5-0.2,2.2,0.1c0.3,0.2,0.6,0.4,0.8,0.6l-1.5,0c-0.9,0-1.6,0.6-1.8,1.4
		c-0.1,0.2-0.1,0.4-0.1,0.6c0,1.1,0.9,1.9,2,1.9l1.5,0c-0.3,0.4-0.7,0.7-1.2,0.8l-8.1,2.8c-0.2,0.1-0.4,0.1-0.6,0.1l1.4-1.2
		c0.8-0.7,0.9-1.9,0.3-2.7c-0.7-0.8-1.9-0.9-2.7-0.3l-2.1,1.8C28.5,18.3,29.3,16.9,30.6,16.5z M15.2,40.2l-0.6-8.5
		c-0.1-1.6,1.1-3,2.7-3.1c0.2,0,0.3,0,0.5,0l-1.3,1.1c-0.3,0.3-0.5,0.6-0.6,1c-0.2,0.6-0.1,1.2,0.4,1.8c0.7,0.8,1.9,0.9,2.7,0.3
		l1.4-1.2l0.5,8.3c0,0.3,0,0.7-0.1,1c-0.1,0.3-0.2,0.5-0.4,0.8l-0.7-1.9c-0.4-1-1.5-1.5-2.5-1.1c-0.6,0.2-1,0.7-1.2,1.3
		c-0.1,0.4-0.1,0.8,0,1.2l0.6,1.5C15.8,42.2,15.2,41.3,15.2,40.2z M28.6,48.4c-0.1-0.1-0.2-0.3-0.2-0.6c0.1-0.5,0.5-0.8,0.9-0.7
		c0.3,0,0.5,0.2,0.6,0.3c0.1,0.1,0.2,0.3,0.2,0.6c0,0,0,0.1,0,0.1c-0.1,0.4-0.5,0.7-0.9,0.6l0,0c0,0,0,0,0,0
		C28.8,48.7,28.7,48.5,28.6,48.4z M12.8,64.4c1.1-7.6,8.1-12.9,15.7-11.9c3.7,0.5,7,2.4,9.2,5.4c2.2,3,3.2,6.6,2.7,10.3
		c-1.2,8.5-7,12.5-12,12.1c-2-0.2-3.8,1.1-4.2,2.9c0.2-1.8-1.2-3.6-3.2-4C14.5,78.1,11.9,70.8,12.8,64.4z"/>
</g>
<g>
</g>
<g>
</g>
<g>
</g>
<g>
</g>
<g>
</g>
<g>
</g>
</svg>
