<svg xmlns="http://www.w3.org/2000/svg" viewBox="0 0 100 100" enable-background="new 0 0 100 100"><style type="text/css">.st0{fill:#BB9D6E;}</style><path class="st0" d="M21.6 90.5c1 .1 1.9-.6 2.1-1.6-.1 1.1.7 2 1.7 2.1 1.1.1 2-.7 2.1-1.7l.5-5.1h.1c6.9.6 14.6-4.6 16.2-15.4.7-4.7-.5-9.4-3.4-13.2-1.9-2.6-4.5-4.5-7.4-5.7.2-.4.4-.9.4-1.4.2-1.2-.1-2.5-.9-3.5s-1.9-1.7-3.1-1.8c-2.3-.3-4.5 1.1-5.2 3.4-.1.2-.1.4-.1.6-.1.5 0 1 0 1.4l-1.5.2-1.2-3.3c1.2-.9 2.2-2.1 2.6-3.6.2-.7.3-1.5.2-2.3l-.6-8.5c-.1-.8-.2-1.6-.6-2.3l4.6-3.8.3.2c1.6.8 3.4.9 5.2.3l8.1-2.8c2.1-.7 3.7-2.4 4.3-4.5l4-.1c.7 1.6 1.9 3 3.7 3.7l7.9 3.3c1.6.7 3.4.7 5.1 0l1.8 2.3c-.4.6-.7 1.2-.9 1.9-.3.9-.3 1.8-.2 2.8l1.2 8.5c.3 2.5 2.1 4.5 4.3 5.4l-.1 2.8c-5.9.1-11.6 3.2-14.8 8.7-1 1.7-1.7 3.5-2.2 5.1-2.1 7.4.7 13.9 5.4 17l.1.1-2.7 4.3c-.6.9-.3 2.1.6 2.7.9.6 2.1.3 2.7-.6-.1.1-.1.2-.2.4-.2.8.1 1.7.8 2.2.9.6 2.1.3 2.7-.6.2-.4 2.1-3.4 2.8-4.5h.1c6.2 3.1 15.3 1.3 20.8-8.2 4.2-7.2 2.7-16-2.9-21.6.4-.3.7-.7.9-1.1.2-.3.3-.7.5-1.1.6-2.1-.3-4.3-2.2-5.4-2.3-1.2-5.2-.4-6.5 1.8-.2.3-.3.7-.5 1.1 0 .1 0 .2-.1.3-.5-.1-1-.3-1.5-.3l.1-2.8c2.4-.5 4.3-2.3 5-4.7.3-.9.3-1.8.2-2.8l-1.2-8.5c-.5-3.7-3.9-6.3-7.6-5.8-.6.1-1.2.3-1.8.5l-1.7-2.2c.3-.4.5-.8.7-1.3 1.4-3.5-.3-7.4-3.7-8.8l-7.9-3.3c-1.7-.7-3.5-.7-5.2 0-1.7.7-3 2-3.6 3.7l-.3.7-.1.5-3.5.1v-.1c-.6-1.7-1.8-3.1-3.4-3.9-1.6-.8-3.4-.9-5.2-.3l-8.1 2.8c-2.1.7-3.7 2.4-4.3 4.5-.4 1.3-.3 2.7.1 4 .1.3.2.6.4.9l-4.4 3.6c-1.2-.8-2.6-1.2-4.1-1.1-2.8.2-5.3 2.1-6 4.9-.2.7-.3 1.5-.2 2.3l.6 8.5c.2 3.6 3.3 6.4 6.9 6.3l1.2 3.3c-4.7 2.1-8.4 6.2-9.9 11.4-.3.7-.5 1.5-.6 2.4-1.5 10.9 4.5 18 11.3 19.3h.1c-.2 1.3-.5 4.8-.5 5.3-.1 1 .7 1.9 1.7 2zm63.9-17c-3.3 5.6-9.7 9.7-15.7 6.7-1.8-.9-4-.4-5 1.2.9-1.6.3-3.8-1.4-4.9-5.6-3.7-5.2-11.3-2-17 3.9-6.6 12.4-8.9 19.1-5.1 6.6 3.9 8.8 12.4 5 19.1zm-3.4-23.6c.2-.4.7-.5 1.1-.3.3.2.5.6.4 1 0 .1 0 .1-.1.2-.2.4-.7.5-1.1.3-.4-.2-.6-.8-.3-1.2zm-5-19.2l1.2 8.5c.1.4 0 .8-.1 1.2-.3.6-.7 1.2-1.2 1.6l.1-2.7c0-1.1-.8-2-1.9-2-.9 0-1.7.6-1.9 1.4 0 .1-.1.3-.1.5l-.1 2.3c-.3-.4-.6-.9-.6-1.4l-1.2-8.5v-.6l1.3 1.7c.7.8 1.9 1 2.7.3.8-.7 1-1.9.3-2.7l-1.5-2c1.5-.1 2.8 1 3 2.4zm-21.8-17.7c.7-.3 1.5-.3 2.2 0l7.9 3.3c1.2.5 1.9 1.8 1.7 3.1l-.9-1.2c-.7-.8-1.9-1-2.7-.3-.3.3-.6.6-.7 1-.2.6-.1 1.2.3 1.7l1 1.2c-.3 0-.6-.1-.9-.2l-7.9-3.3-.5-.3h1.5c1.1 0 1.9-.9 1.9-2s-.9-1.9-2-1.9h-2.3c.3-.4.8-.9 1.4-1.1zm-24.7 3.5l8.1-2.8c.7-.2 1.5-.2 2.2.1.3.2.6.4.8.6h-1.5c-.9 0-1.6.6-1.8 1.4-.1.2-.1.4-.1.6 0 1.1.9 1.9 2 1.9h1.5c-.3.4-.7.7-1.2.8l-8.1 2.8c-.2.1-.4.1-.6.1l1.4-1.2c.8-.7.9-1.9.3-2.7-.7-.8-1.9-.9-2.7-.3l-2.1 1.8c-.3-1.3.5-2.7 1.8-3.1zm-15.4 23.7l-.6-8.5c-.1-1.6 1.1-3 2.7-3.1h.5l-1.3 1.1c-.3.3-.5.6-.6 1-.2.6-.1 1.2.4 1.8.7.8 1.9.9 2.7.3l1.4-1.2.5 8.3c0 .3 0 .7-.1 1-.1.3-.2.5-.4.8l-.7-1.9c-.4-1-1.5-1.5-2.5-1.1-.6.2-1 .7-1.2 1.3-.1.4-.1.8 0 1.2l.6 1.5c-.8-.5-1.4-1.4-1.4-2.5zm13.4 8.2c-.1-.1-.2-.3-.2-.6.1-.5.5-.8.9-.7.3 0 .5.2.6.3.1.1.2.3.2.6v.1c-.1.4-.5.7-.9.6-.4 0-.5-.2-.6-.3zm-15.8 16c1.1-7.6 8.1-12.9 15.7-11.9 3.7.5 7 2.4 9.2 5.4 2.2 3 3.2 6.6 2.7 10.3-1.2 8.5-7 12.5-12 12.1-2-.2-3.8 1.1-4.2 2.9.2-1.8-1.2-3.6-3.2-4-6.5-1.1-9.1-8.4-8.2-14.8z" id="Your_Icon_2_"/></svg>